# xmcd
# Copyright (C) 1995-1998 Ti Kan
#
# Track frame offsets:
#       150
#       11782
#       26475
#       43772
#       61533
#       75474
#       89970
#       101867
#       116430
#
# Disc length: 1660 seconds
#
# Revision: 0
# Processed by: cddbd v1.5.2PL0 Copyright (c) Steve Scherf et al.
# Submitted via: CD-Import v1.0
#
DISCID=6d067a09
DTITLE=Adhoc - Adhoc
DYEAR=09
DGENRE=
TTITLE0=Pilgarlic
TTITLE1=Happy My Ass
TTITLE2=Bursting Blister
TTITLE3=Once Or Twice
TTITLE4=Commemorate
TTITLE5=Dead Fish
TTITLE6=Murmuring
TTITLE7=Loom Of The Lane
TTITLE8=Eggs
EXTD=
EXTT0=
EXTT1=
EXTT2=
EXTT3=
EXTT4=
EXTT5=
EXTT6=
EXTT7=
EXTT8=
PLAYORDER=
